<svg xmlns="http://www.w3.org/2000/svg" xmlns:xlink="http://www.w3.org/1999/xlink" width="500" zoomAndPan="magnify" viewBox="0 0 375 449.999984" height="600" preserveAspectRatio="xMidYMid meet" version="1.0"><defs><clipPath id="0c8bf589d1"><path d="M 11.453125 61.976562 L 361.703125 61.976562 L 361.703125 412.226562 L 11.453125 412.226562 Z M 11.453125 61.976562 " clip-rule="nonzero"/></clipPath></defs><g clip-path="url(#0c8bf589d1)"><path fill="#bfbdbc" d="M 361.703125 237.105469 C 361.703125 333.820312 283.296875 412.226562 186.582031 412.226562 C 89.863281 412.226562 11.460938 333.820312 11.460938 237.105469 C 11.460938 140.386719 89.863281 61.984375 186.582031 61.984375 C 283.296875 61.984375 361.703125 140.386719 361.703125 237.105469 " fill-opacity="1" fill-rule="nonzero"/></g><path fill="#ffffff" d="M 248.789062 181.746094 C 248.789062 216.222656 220.835938 244.175781 186.355469 244.175781 C 151.878906 244.175781 123.925781 216.222656 123.925781 181.746094 C 123.925781 147.261719 151.878906 119.3125 186.355469 119.3125 C 220.835938 119.3125 248.789062 147.261719 248.789062 181.746094 " fill-opacity="1" fill-rule="nonzero"/><path fill="#ffffff" d="M 186.355469 403.910156 C 230.535156 403.910156 270.886719 387.546875 301.695312 360.554688 C 292.128906 298.105469 263.96875 254.769531 186.355469 254.769531 C 110.921875 254.769531 81.726562 298.289062 71.46875 360.953125 C 102.21875 387.707031 142.394531 403.910156 186.355469 403.910156 " fill-opacity="1" fill-rule="nonzero"/><path stroke-linecap="butt" transform="matrix(0.75, 0, 0, 0.75, 126.715485, 93.583675)" fill="none" stroke-linejoin="miter" d="M -0.000854896 1.997808 L 159.999158 1.997808 " stroke="#000000" stroke-width="4" stroke-opacity="1" stroke-miterlimit="4"/></svg>