<svg xmlns="http://www.w3.org/2000/svg" xmlns:xlink="http://www.w3.org/1999/xlink" width="500" zoomAndPan="magnify" viewBox="0 0 375 374.999991" height="500" preserveAspectRatio="xMidYMid meet" version="1.0"><defs><g/></defs><rect x="-37.5" width="450" fill="#ffffff" y="-37.499999" height="449.999989" fill-opacity="1"/><rect x="-37.5" width="450" fill="#000000" y="-37.499999" height="449.999989" fill-opacity="1"/><g fill="#ffd450" fill-opacity="1"><g transform="translate(94.375662, 202.027384)"><g><path d="M 66.765625 2.234375 C 49.898438 2.128906 36.15625 -3.253906 25.53125 -13.921875 C 14.914062 -24.597656 9.609375 -38.660156 9.609375 -56.109375 C 9.609375 -73.566406 14.914062 -87.628906 25.53125 -98.296875 C 36.15625 -108.972656 50.21875 -114.3125 67.71875 -114.3125 C 82.03125 -114.3125 94.679688 -110.6875 105.671875 -103.4375 L 108.875 -80.859375 L 107.4375 -80.859375 C 105.082031 -90.035156 100.328125 -97.101562 93.171875 -102.0625 C 86.023438 -107.03125 77.539062 -109.515625 67.71875 -109.515625 C 53.738281 -109.515625 42.554688 -104.65625 34.171875 -94.9375 C 25.796875 -85.226562 21.609375 -72.367188 21.609375 -56.359375 C 21.609375 -40.347656 25.742188 -27.457031 34.015625 -17.6875 C 42.296875 -7.925781 53.210938 -2.882812 66.765625 -2.5625 C 78.722656 -2.5625 88.703125 -5.816406 96.703125 -12.328125 C 105.347656 -19.367188 110.578125 -30.84375 112.390625 -46.75 L 113.671875 -46.75 L 111.75 -21.609375 C 102.039062 -5.710938 87.046875 2.234375 66.765625 2.234375 Z M 66.765625 2.234375 "/></g></g></g><g fill="#ffd450" fill-opacity="1"><g transform="translate(263.225877, 127.204386)"><g><path d="M -66.765625 -2.234375 C -49.898438 -2.128906 -36.15625 3.253906 -25.53125 13.921875 C -14.914062 24.597656 -9.609375 38.660156 -9.609375 56.109375 C -9.609375 73.566406 -14.914062 87.628906 -25.53125 98.296875 C -36.15625 108.972656 -50.21875 114.3125 -67.71875 114.3125 C -82.03125 114.3125 -94.679688 110.6875 -105.671875 103.4375 L -108.875 80.859375 L -107.4375 80.859375 C -105.082031 90.035156 -100.328125 97.101562 -93.171875 102.0625 C -86.023438 107.03125 -77.539062 109.515625 -67.71875 109.515625 C -53.738281 109.515625 -42.554688 104.65625 -34.171875 94.9375 C -25.796875 85.226562 -21.609375 72.367188 -21.609375 56.359375 C -21.609375 40.347656 -25.742188 27.457031 -34.015625 17.6875 C -42.296875 7.925781 -53.210938 2.882812 -66.765625 2.5625 C -78.722656 2.5625 -88.703125 5.816406 -96.703125 12.328125 C -105.347656 19.367188 -110.578125 30.84375 -112.390625 46.75 L -113.671875 46.75 L -111.75 21.609375 C -102.039062 5.710938 -87.046875 -2.234375 -66.765625 -2.234375 Z M -66.765625 -2.234375 "/></g></g></g><g fill="#ffd450" fill-opacity="1"><g transform="translate(82.701222, 276.665131)"><g><path d="M 9 0.328125 C 6.582031 0.316406 4.675781 -0.347656 3.28125 -1.671875 C 1.882812 -3.003906 1.1875 -4.816406 1.1875 -7.109375 C 1.1875 -9.410156 1.882812 -11.222656 3.28125 -12.546875 C 4.675781 -13.878906 6.582031 -14.546875 9 -14.546875 C 9.976562 -14.546875 10.960938 -14.414062 11.953125 -14.15625 C 12.953125 -13.90625 13.816406 -13.5625 14.546875 -13.125 L 15.0625 -9.765625 L 14.859375 -9.765625 C 14.171875 -12.472656 12.210938 -13.828125 8.984375 -13.828125 C 7.097656 -13.828125 5.609375 -13.226562 4.515625 -12.03125 C 3.429688 -10.832031 2.890625 -9.191406 2.890625 -7.109375 C 2.890625 -5.742188 3.132812 -4.5625 3.625 -3.5625 C 4.113281 -2.5625 4.820312 -1.785156 5.75 -1.234375 C 6.6875 -0.679688 7.769531 -0.40625 9 -0.40625 C 10.226562 -0.40625 11.304688 -0.585938 12.234375 -0.953125 C 13.160156 -1.328125 13.925781 -1.941406 14.53125 -2.796875 C 15.132812 -3.648438 15.476562 -4.707031 15.5625 -5.96875 L 15.78125 -5.96875 L 15.515625 -2.71875 C 14.898438 -1.769531 14.003906 -1.023438 12.828125 -0.484375 C 11.660156 0.0546875 10.382812 0.328125 9 0.328125 Z M 9 0.328125 "/></g></g></g><g fill="#ffd450" fill-opacity="1"><g transform="translate(99.402611, 276.665131)"><g><path d="M 1.640625 -0.234375 C 2.015625 -0.234375 2.332031 -0.351562 2.59375 -0.59375 C 2.851562 -0.84375 2.992188 -1.144531 3.015625 -1.5 L 3.015625 -12.703125 C 2.992188 -13.046875 2.84375 -13.34375 2.5625 -13.59375 C 2.289062 -13.84375 1.96875 -13.96875 1.59375 -13.96875 L 1.296875 -13.96875 L 1.296875 -14.21875 L 6.203125 -14.21875 L 6.203125 -13.96875 L 5.921875 -13.96875 C 5.546875 -13.96875 5.21875 -13.84375 4.9375 -13.59375 C 4.664062 -13.34375 4.53125 -13.046875 4.53125 -12.703125 L 4.53125 -0.734375 L 8.21875 -0.734375 C 8.945312 -0.734375 9.5625 -0.859375 10.0625 -1.109375 C 10.570312 -1.367188 10.957031 -1.671875 11.21875 -2.015625 C 11.476562 -2.359375 11.734375 -2.816406 11.984375 -3.390625 L 12.21875 -3.390625 L 10.921875 0 L 1.296875 0 L 1.296875 -0.234375 Z M 1.640625 -0.234375 "/></g></g></g><g fill="#ffd450" fill-opacity="1"><g transform="translate(112.100405, 276.665131)"><g><path d="M 1.640625 -0.234375 C 2.015625 -0.234375 2.332031 -0.351562 2.59375 -0.59375 C 2.851562 -0.84375 2.992188 -1.144531 3.015625 -1.5 L 3.015625 -12.75 C 3.015625 -13.09375 2.878906 -13.378906 2.609375 -13.609375 C 2.335938 -13.847656 2.015625 -13.96875 1.640625 -13.96875 L 1.296875 -13.96875 L 1.296875 -14.21875 L 8.21875 -14.21875 C 8.863281 -14.21875 9.429688 -14.265625 9.921875 -14.359375 C 10.410156 -14.453125 10.726562 -14.53125 10.875 -14.59375 L 10.875 -11.890625 L 10.609375 -11.921875 L 10.609375 -12.265625 C 10.609375 -12.597656 10.5 -12.882812 10.28125 -13.125 C 10.0625 -13.363281 9.773438 -13.484375 9.421875 -13.484375 L 4.5 -13.484375 L 4.5 -7.46875 L 8.546875 -7.46875 C 8.867188 -7.46875 9.109375 -7.5625 9.265625 -7.75 C 9.429688 -7.9375 9.515625 -8.171875 9.515625 -8.453125 L 9.515625 -8.765625 L 9.78125 -8.765625 L 9.78125 -5.453125 L 9.515625 -5.453125 L 9.515625 -5.75 C 9.515625 -6.195312 9.351562 -6.5 9.03125 -6.65625 C 8.894531 -6.707031 8.757812 -6.738281 8.625 -6.75 L 4.5 -6.75 L 4.5 -0.734375 L 8.21875 -0.734375 C 8.945312 -0.734375 9.554688 -0.859375 10.046875 -1.109375 C 10.546875 -1.367188 10.925781 -1.671875 11.1875 -2.015625 C 11.445312 -2.359375 11.710938 -2.816406 11.984375 -3.390625 L 12.21875 -3.390625 L 10.921875 0 L 1.296875 0 L 1.296875 -0.234375 Z M 1.640625 -0.234375 "/></g></g></g><g fill="#ffd450" fill-opacity="1"><g transform="translate(125.035098, 276.665131)"><g><path d="M 5.15625 -13.609375 C 6.375 -14.234375 7.710938 -14.546875 9.171875 -14.546875 C 10.640625 -14.546875 11.976562 -14.234375 13.1875 -13.609375 C 14.40625 -12.984375 15.375 -12.101562 16.09375 -10.96875 C 16.8125 -9.832031 17.171875 -8.546875 17.171875 -7.109375 C 17.171875 -5.671875 16.8125 -4.382812 16.09375 -3.25 C 15.375 -2.113281 14.40625 -1.234375 13.1875 -0.609375 C 11.976562 0.015625 10.734375 0.328125 9.453125 0.328125 C 8.171875 0.328125 7.039062 0.144531 6.0625 -0.21875 C 5.082031 -0.582031 4.234375 -1.085938 3.515625 -1.734375 C 2.796875 -2.378906 2.226562 -3.164062 1.8125 -4.09375 C 1.394531 -5.03125 1.1875 -6.125 1.1875 -7.375 C 1.1875 -8.632812 1.546875 -9.832031 2.265625 -10.96875 C 2.984375 -12.101562 3.945312 -12.984375 5.15625 -13.609375 Z M 4.71875 -2.25 C 5.914062 -1 7.394531 -0.375 9.15625 -0.375 C 10.925781 -0.375 12.410156 -1 13.609375 -2.25 C 14.816406 -3.507812 15.421875 -5.125 15.421875 -7.09375 C 15.421875 -9.070312 14.816406 -10.6875 13.609375 -11.9375 C 12.410156 -13.195312 10.925781 -13.828125 9.15625 -13.828125 C 7.394531 -13.828125 5.914062 -13.195312 4.71875 -11.9375 C 3.53125 -10.6875 2.9375 -9.070312 2.9375 -7.09375 C 2.9375 -5.125 3.53125 -3.507812 4.71875 -2.25 Z M 4.71875 -2.25 "/></g></g></g><g fill="#ffd450" fill-opacity="1"><g transform="translate(143.371092, 276.665131)"><g><path d="M 5.421875 -6.734375 C 5.785156 -6.628906 6.117188 -6.578125 6.421875 -6.578125 C 6.722656 -6.578125 6.96875 -6.582031 7.15625 -6.59375 C 7.34375 -6.613281 7.609375 -6.664062 7.953125 -6.75 C 8.304688 -6.84375 8.625 -6.984375 8.90625 -7.171875 C 9.570312 -7.585938 10.0625 -8.238281 10.375 -9.125 C 10.488281 -9.4375 10.546875 -9.863281 10.546875 -10.40625 C 10.546875 -11.363281 10.210938 -12.117188 9.546875 -12.671875 C 8.878906 -13.222656 7.960938 -13.5 6.796875 -13.5 L 4.5 -13.5 L 4.5 -1.515625 C 4.519531 -1.015625 4.75 -0.644531 5.1875 -0.40625 C 5.394531 -0.289062 5.625 -0.234375 5.875 -0.234375 L 6.203125 -0.234375 L 6.203125 0 L 1.296875 0 L 1.296875 -0.234375 L 1.640625 -0.234375 C 2.015625 -0.234375 2.332031 -0.351562 2.59375 -0.59375 C 2.851562 -0.84375 2.992188 -1.144531 3.015625 -1.5 L 3.015625 -12.71875 C 2.992188 -13.082031 2.851562 -13.378906 2.59375 -13.609375 C 2.332031 -13.847656 2.015625 -13.96875 1.640625 -13.96875 L 1.296875 -13.96875 L 1.296875 -14.21875 L 6.84375 -14.21875 C 8.5 -14.21875 9.8125 -13.851562 10.78125 -13.125 C 11.757812 -12.394531 12.25 -11.414062 12.25 -10.1875 C 12.25 -9.300781 12.039062 -8.523438 11.625 -7.859375 C 10.820312 -6.566406 9.578125 -5.921875 7.890625 -5.921875 C 7.046875 -5.921875 6.222656 -6.109375 5.421875 -6.484375 Z M 5.421875 -6.734375 "/></g></g></g><g fill="#ffd450" fill-opacity="1"><g transform="translate(156.471616, 276.665131)"><g/></g></g><g fill="#ffd450" fill-opacity="1"><g transform="translate(162.394098, 276.665131)"><g><path d="M 9.875 0.328125 C 7.382812 0.316406 5.351562 -0.472656 3.78125 -2.046875 C 2.207031 -3.628906 1.421875 -5.710938 1.421875 -8.296875 C 1.421875 -10.878906 2.207031 -12.957031 3.78125 -14.53125 C 5.351562 -16.113281 7.429688 -16.90625 10.015625 -16.90625 C 12.128906 -16.90625 14.003906 -16.367188 15.640625 -15.296875 L 16.109375 -11.96875 L 15.890625 -11.96875 C 15.546875 -13.320312 14.84375 -14.363281 13.78125 -15.09375 C 12.726562 -15.832031 11.472656 -16.203125 10.015625 -16.203125 C 7.953125 -16.203125 6.300781 -15.484375 5.0625 -14.046875 C 3.820312 -12.609375 3.203125 -10.703125 3.203125 -8.328125 C 3.203125 -5.960938 3.8125 -4.054688 5.03125 -2.609375 C 6.257812 -1.171875 7.875 -0.425781 9.875 -0.375 C 11.644531 -0.375 13.125 -0.859375 14.3125 -1.828125 C 15.582031 -2.867188 16.351562 -4.566406 16.625 -6.921875 L 16.8125 -6.921875 L 16.53125 -3.203125 C 15.09375 -0.847656 12.875 0.328125 9.875 0.328125 Z M 9.875 0.328125 "/></g></g></g><g fill="#ffd450" fill-opacity="1"><g transform="translate(180.398437, 276.665131)"><g><path d="M 11.84375 -0.234375 C 12.207031 -0.234375 12.519531 -0.351562 12.78125 -0.59375 C 13.050781 -0.84375 13.195312 -1.144531 13.21875 -1.5 L 13.21875 -6.65625 L 4.484375 -6.65625 L 4.484375 -1.5 C 4.492188 -1.144531 4.632812 -0.84375 4.90625 -0.59375 C 5.175781 -0.351562 5.488281 -0.234375 5.84375 -0.234375 L 6.140625 -0.234375 L 6.140625 0 L 1.296875 0 L 1.296875 -0.234375 L 1.59375 -0.234375 C 1.96875 -0.234375 2.285156 -0.359375 2.546875 -0.609375 C 2.804688 -0.867188 2.945312 -1.171875 2.96875 -1.515625 L 2.96875 -12.703125 C 2.945312 -13.046875 2.800781 -13.34375 2.53125 -13.59375 C 2.257812 -13.84375 1.945312 -13.96875 1.59375 -13.96875 L 1.296875 -13.96875 L 1.296875 -14.21875 L 6.140625 -14.21875 L 6.140625 -13.96875 L 5.84375 -13.96875 C 5.488281 -13.96875 5.175781 -13.84375 4.90625 -13.59375 C 4.632812 -13.351562 4.492188 -13.0625 4.484375 -12.71875 L 4.484375 -7.359375 L 13.21875 -7.359375 L 13.21875 -12.703125 C 13.21875 -13.046875 13.113281 -13.3125 12.90625 -13.5 C 12.570312 -13.8125 12.21875 -13.96875 11.84375 -13.96875 L 11.5625 -13.96875 L 11.5625 -14.21875 L 16.390625 -14.21875 L 16.390625 -13.96875 L 16.109375 -13.96875 C 15.742188 -13.96875 15.425781 -13.847656 15.15625 -13.609375 C 14.882812 -13.378906 14.742188 -13.09375 14.734375 -12.75 L 14.734375 -1.5 C 14.742188 -1.144531 14.847656 -0.878906 15.046875 -0.703125 C 15.390625 -0.390625 15.742188 -0.234375 16.109375 -0.234375 L 16.390625 -0.234375 L 16.390625 0 L 11.5625 0 L 11.5625 -0.234375 Z M 11.84375 -0.234375 "/></g></g></g><g fill="#ffd450" fill-opacity="1"><g transform="translate(198.071106, 276.665131)"><g><path d="M 15.640625 -0.234375 L 15.828125 -0.234375 L 15.828125 0 L 10.96875 0 L 10.96875 -0.234375 L 11.15625 -0.234375 C 11.457031 -0.234375 11.6875 -0.335938 11.84375 -0.546875 C 12 -0.753906 12.078125 -0.945312 12.078125 -1.125 C 12.078125 -1.300781 12.046875 -1.476562 11.984375 -1.65625 L 10.6875 -4.8125 L 4.6875 -4.8125 L 3.390625 -1.734375 C 3.304688 -1.523438 3.265625 -1.328125 3.265625 -1.140625 C 3.265625 -0.960938 3.34375 -0.765625 3.5 -0.546875 C 3.664062 -0.335938 3.90625 -0.234375 4.21875 -0.234375 L 4.40625 -0.234375 L 4.40625 0 L -0.125 0 L -0.125 -0.234375 L 0.078125 -0.234375 C 0.398438 -0.234375 0.734375 -0.347656 1.078125 -0.578125 C 1.421875 -0.804688 1.703125 -1.148438 1.921875 -1.609375 C 5.378906 -9.003906 7.175781 -12.875 7.3125 -13.21875 C 7.582031 -13.882812 7.726562 -14.328125 7.75 -14.546875 L 7.953125 -14.546875 L 13.8125 -1.609375 C 14.269531 -0.691406 14.878906 -0.234375 15.640625 -0.234375 Z M 5 -5.515625 L 10.40625 -5.515625 L 7.75 -12.015625 Z M 5 -5.515625 "/></g></g></g><g fill="#ffd450" fill-opacity="1"><g transform="translate(213.777528, 276.665131)"><g><path d="M 5.421875 -6.734375 C 5.785156 -6.628906 6.117188 -6.578125 6.421875 -6.578125 C 6.722656 -6.578125 6.96875 -6.582031 7.15625 -6.59375 C 7.34375 -6.613281 7.609375 -6.664062 7.953125 -6.75 C 8.304688 -6.84375 8.625 -6.984375 8.90625 -7.171875 C 9.570312 -7.585938 10.0625 -8.238281 10.375 -9.125 C 10.488281 -9.4375 10.546875 -9.863281 10.546875 -10.40625 C 10.546875 -11.363281 10.210938 -12.117188 9.546875 -12.671875 C 8.878906 -13.222656 7.960938 -13.5 6.796875 -13.5 L 4.5 -13.5 L 4.5 -1.515625 C 4.519531 -1.015625 4.75 -0.644531 5.1875 -0.40625 C 5.394531 -0.289062 5.625 -0.234375 5.875 -0.234375 L 6.203125 -0.234375 L 6.203125 0 L 1.296875 0 L 1.296875 -0.234375 L 1.640625 -0.234375 C 2.015625 -0.234375 2.332031 -0.351562 2.59375 -0.59375 C 2.851562 -0.84375 2.992188 -1.144531 3.015625 -1.5 L 3.015625 -12.71875 C 2.992188 -13.082031 2.851562 -13.378906 2.59375 -13.609375 C 2.332031 -13.847656 2.015625 -13.96875 1.640625 -13.96875 L 1.296875 -13.96875 L 1.296875 -14.21875 L 6.84375 -14.21875 C 8.5 -14.21875 9.8125 -13.851562 10.78125 -13.125 C 11.757812 -12.394531 12.25 -11.414062 12.25 -10.1875 C 12.25 -9.300781 12.039062 -8.523438 11.625 -7.859375 C 10.820312 -6.566406 9.578125 -5.921875 7.890625 -5.921875 C 7.046875 -5.921875 6.222656 -6.109375 5.421875 -6.484375 Z M 5.421875 -6.734375 "/></g></g></g><g fill="#ffd450" fill-opacity="1"><g transform="translate(226.878053, 276.665131)"><g><path d="M 15.640625 -0.234375 L 15.828125 -0.234375 L 15.828125 0 L 10.96875 0 L 10.96875 -0.234375 L 11.15625 -0.234375 C 11.457031 -0.234375 11.6875 -0.335938 11.84375 -0.546875 C 12 -0.753906 12.078125 -0.945312 12.078125 -1.125 C 12.078125 -1.300781 12.046875 -1.476562 11.984375 -1.65625 L 10.6875 -4.8125 L 4.6875 -4.8125 L 3.390625 -1.734375 C 3.304688 -1.523438 3.265625 -1.328125 3.265625 -1.140625 C 3.265625 -0.960938 3.34375 -0.765625 3.5 -0.546875 C 3.664062 -0.335938 3.90625 -0.234375 4.21875 -0.234375 L 4.40625 -0.234375 L 4.40625 0 L -0.125 0 L -0.125 -0.234375 L 0.078125 -0.234375 C 0.398438 -0.234375 0.734375 -0.347656 1.078125 -0.578125 C 1.421875 -0.804688 1.703125 -1.148438 1.921875 -1.609375 C 5.378906 -9.003906 7.175781 -12.875 7.3125 -13.21875 C 7.582031 -13.882812 7.726562 -14.328125 7.75 -14.546875 L 7.953125 -14.546875 L 13.8125 -1.609375 C 14.269531 -0.691406 14.878906 -0.234375 15.640625 -0.234375 Z M 5 -5.515625 L 10.40625 -5.515625 L 7.75 -12.015625 Z M 5 -5.515625 "/></g></g></g><g fill="#ffd450" fill-opacity="1"><g transform="translate(242.584475, 276.665131)"><g><path d="M 1.640625 -0.234375 C 2.015625 -0.234375 2.332031 -0.351562 2.59375 -0.59375 C 2.851562 -0.84375 2.992188 -1.144531 3.015625 -1.5 L 3.015625 -12.703125 C 2.992188 -13.046875 2.84375 -13.34375 2.5625 -13.59375 C 2.289062 -13.84375 1.96875 -13.96875 1.59375 -13.96875 L 1.296875 -13.96875 L 1.296875 -14.21875 L 6.203125 -14.21875 L 6.203125 -13.96875 L 5.921875 -13.96875 C 5.546875 -13.96875 5.21875 -13.84375 4.9375 -13.59375 C 4.664062 -13.34375 4.53125 -13.046875 4.53125 -12.703125 L 4.53125 -0.734375 L 8.21875 -0.734375 C 8.945312 -0.734375 9.5625 -0.859375 10.0625 -1.109375 C 10.570312 -1.367188 10.957031 -1.671875 11.21875 -2.015625 C 11.476562 -2.359375 11.734375 -2.816406 11.984375 -3.390625 L 12.21875 -3.390625 L 10.921875 0 L 1.296875 0 L 1.296875 -0.234375 Z M 1.640625 -0.234375 "/></g></g></g><g fill="#ffd450" fill-opacity="1"><g transform="translate(255.282262, 276.665131)"><g><path d="M 21.40625 -13.96875 L 21.25 -13.96875 C 20.300781 -13.96875 19.65625 -13.503906 19.3125 -12.578125 L 15.875 -2.34375 C 15.519531 -1.351562 15.335938 -0.476562 15.328125 0.28125 L 15.09375 0.28125 L 10.6875 -10.984375 L 7.609375 -2.34375 C 7.285156 -1.363281 7.109375 -0.488281 7.078125 0.28125 L 6.875 0.28125 L 1.890625 -12.671875 C 1.523438 -13.535156 0.894531 -13.96875 0 -13.96875 L -0.1875 -13.96875 L -0.1875 -14.21875 L 4.6875 -14.21875 L 4.6875 -13.96875 L 4.5 -13.96875 C 4.21875 -13.96875 4 -13.878906 3.84375 -13.703125 C 3.695312 -13.535156 3.625 -13.363281 3.625 -13.1875 C 3.625 -13.019531 3.644531 -12.859375 3.6875 -12.703125 L 6.84375 -3.0625 L 10.84375 -14.59375 L 11.078125 -14.5625 L 15.328125 -3.765625 L 17.984375 -12.546875 C 18.054688 -12.773438 18.09375 -12.972656 18.09375 -13.140625 C 18.09375 -13.316406 18.03125 -13.5 17.90625 -13.6875 C 17.78125 -13.875 17.566406 -13.96875 17.265625 -13.96875 L 17.078125 -13.96875 L 17.078125 -14.21875 L 21.40625 -14.21875 Z M 21.40625 -13.96875 "/></g></g></g><g fill="#ffd450" fill-opacity="1"><g transform="translate(276.579503, 276.665131)"><g><path d="M 15.640625 -0.234375 L 15.828125 -0.234375 L 15.828125 0 L 10.96875 0 L 10.96875 -0.234375 L 11.15625 -0.234375 C 11.457031 -0.234375 11.6875 -0.335938 11.84375 -0.546875 C 12 -0.753906 12.078125 -0.945312 12.078125 -1.125 C 12.078125 -1.300781 12.046875 -1.476562 11.984375 -1.65625 L 10.6875 -4.8125 L 4.6875 -4.8125 L 3.390625 -1.734375 C 3.304688 -1.523438 3.265625 -1.328125 3.265625 -1.140625 C 3.265625 -0.960938 3.34375 -0.765625 3.5 -0.546875 C 3.664062 -0.335938 3.90625 -0.234375 4.21875 -0.234375 L 4.40625 -0.234375 L 4.40625 0 L -0.125 0 L -0.125 -0.234375 L 0.078125 -0.234375 C 0.398438 -0.234375 0.734375 -0.347656 1.078125 -0.578125 C 1.421875 -0.804688 1.703125 -1.148438 1.921875 -1.609375 C 5.378906 -9.003906 7.175781 -12.875 7.3125 -13.21875 C 7.582031 -13.882812 7.726562 -14.328125 7.75 -14.546875 L 7.953125 -14.546875 L 13.8125 -1.609375 C 14.269531 -0.691406 14.878906 -0.234375 15.640625 -0.234375 Z M 5 -5.515625 L 10.40625 -5.515625 L 7.75 -12.015625 Z M 5 -5.515625 "/></g></g></g></svg>