<svg xmlns="http://www.w3.org/2000/svg" xmlns:xlink="http://www.w3.org/1999/xlink" width="500" zoomAndPan="magnify" viewBox="0 0 375 374.999991" height="500" preserveAspectRatio="xMidYMid meet" version="1.0"><defs><g/></defs><rect x="-37.5" width="450" fill="#ffffff" y="-37.499999" height="449.999989" fill-opacity="1"/><rect x="-37.5" width="450" fill="#000000" y="-37.499999" height="449.999989" fill-opacity="1"/><g fill="#ffd450" fill-opacity="1"><g transform="translate(31.695928, 252.407283)"><g><path d="M 120.0625 4.03125 C 89.738281 3.84375 65.023438 -5.847656 45.921875 -25.046875 C 26.828125 -44.242188 17.28125 -69.535156 17.28125 -100.921875 C 17.28125 -132.304688 26.828125 -157.597656 45.921875 -176.796875 C 65.023438 -195.992188 90.316406 -205.59375 121.796875 -205.59375 C 147.515625 -205.59375 170.257812 -199.0625 190.03125 -186 L 195.796875 -145.40625 L 193.203125 -145.40625 C 188.984375 -161.914062 180.441406 -174.632812 167.578125 -183.5625 C 154.710938 -192.488281 139.453125 -196.953125 121.796875 -196.953125 C 96.648438 -196.953125 76.539062 -188.21875 61.46875 -170.75 C 46.40625 -153.28125 38.875 -130.144531 38.875 -101.34375 C 38.875 -72.550781 46.3125 -49.375 61.1875 -31.8125 C 76.0625 -14.25 95.6875 -5.179688 120.0625 -4.609375 C 141.5625 -4.609375 159.515625 -10.460938 173.921875 -22.171875 C 189.460938 -34.835938 198.863281 -55.472656 202.125 -84.078125 L 204.4375 -84.078125 L 200.984375 -38.875 C 183.515625 -10.269531 156.539062 4.03125 120.0625 4.03125 Z M 120.0625 4.03125 "/></g></g></g><g fill="#ffd450" fill-opacity="1"><g transform="translate(335.353529, 117.846396)"><g><path d="M -120.0625 -4.03125 C -89.738281 -3.84375 -65.023438 5.847656 -45.921875 25.046875 C -26.828125 44.242188 -17.28125 69.535156 -17.28125 100.921875 C -17.28125 132.304688 -26.828125 157.597656 -45.921875 176.796875 C -65.023438 195.992188 -90.316406 205.59375 -121.796875 205.59375 C -147.515625 205.59375 -170.257812 199.0625 -190.03125 186 L -195.796875 145.40625 L -193.203125 145.40625 C -188.984375 161.914062 -180.441406 174.632812 -167.578125 183.5625 C -154.710938 192.488281 -139.453125 196.953125 -121.796875 196.953125 C -96.648438 196.953125 -76.539062 188.21875 -61.46875 170.75 C -46.40625 153.28125 -38.875 130.144531 -38.875 101.34375 C -38.875 72.550781 -46.3125 49.375 -61.1875 31.8125 C -76.0625 14.25 -95.6875 5.179688 -120.0625 4.609375 C -141.5625 4.609375 -159.515625 10.460938 -173.921875 22.171875 C -189.460938 34.835938 -198.863281 55.472656 -202.125 84.078125 L -204.4375 84.078125 L -200.984375 38.875 C -183.515625 10.269531 -156.539062 -4.03125 -120.0625 -4.03125 Z M -120.0625 -4.03125 "/></g></g></g></svg>